<?xml version="1.0" encoding="utf-8"?>
<!-- Generator: Adobe Illustrator 14.0.0, SVG Export Plug-In  -->
<!DOCTYPE svg PUBLIC "-//W3C//DTD SVG 1.1//EN" "http://www.w3.org/Graphics/SVG/1.1/DTD/svg11.dtd" [
	<!ENTITY ns_flows "http://ns.adobe.com/Flows/1.0/">
]>
<svg version="1.1"
	 xmlns="http://www.w3.org/2000/svg" xmlns:xlink="http://www.w3.org/1999/xlink" xmlns:a="http://ns.adobe.com/AdobeSVGViewerExtensions/3.0/"
	 x="0px" y="0px" width="400px" height="400px" viewBox="0 0 400 400" enable-background="new 0 0 400 400" xml:space="preserve">
<defs>
</defs>
<rect fill="#4DB6AC" width="400" height="400"/>
<path fill="#FFFFFF" d="M58.314,172.052l28.6-28.644H74.169L49.542,168.65v-25.242H40v63.269h9.542v-26.183l1.969-1.97
	c0,0,32.023,60.511,97.403,57.136c35.663-1.84,65.219-28.817,98.618-28.817c0.004,0,0.619-0.15,0.619-0.45
	c0-0.15-0.616-0.35-0.619-0.35c-34.782-4.153-65.459,20.577-98.618,20.902C93.331,227.49,58.314,172.052,58.314,172.052z"/>
<polygon fill="#FFFFFF" points="137.134,143.408 137.134,206.677 146.681,206.677 146.681,180.494 148.647,178.524 171.432,206.677 
	184.219,206.677 155.449,172.052 184.055,143.408 171.308,143.408 146.681,168.65 146.681,143.408 "/>
<polygon fill="#FFFFFF" points="232.722,152.383 232.722,143.408 201.133,143.408 201.133,206.677 210.678,206.677 210.678,176.563 
	231.944,176.563 231.944,167.586 210.678,167.586 210.678,152.383 "/>
<path fill="#FFFFFF" d="M325.508,223.826c7.444,0,23.814-5.724,32.378-20.207c1.039-1.759,2.931-6.984,1.725-5.334
	c-9.364,12.817-22.987,17.586-33.722,17.586c-25.896,0-43.35-18.167-64.163-18.167c-0.166,0,0-54.295,0-54.295h-9.549
	c0,0-0.162,63.269,0,63.269C283.111,206.677,291.705,223.826,325.508,223.826z"/>
<path fill="#FFFFFF" d="M301.833,151.81c-6.528,6.396-9.793,14.041-9.793,22.947c0,10.136,3.578,18.331,10.739,24.586
	c6.497,5.654,13.834,8.482,22.006,8.482c9.231,0,17.114-3.183,23.644-9.548c6.503-6.336,9.751-14.056,9.751-23.15
	c0-9.044-3.236-16.788-9.711-23.234c-6.445-6.445-14.18-9.67-23.197-9.67C316.15,142.222,308.334,145.416,301.833,151.81z
	 M348.552,175.024c0,6.661-2.283,12.312-6.844,16.95c-4.564,4.582-10.164,6.878-16.805,6.878c-6.119,0-11.512-2.253-16.184-6.756
	c-4.703-4.503-7.05-10.249-7.05-17.233c0-6.661,2.269-12.259,6.8-16.792c4.539-4.584,10.098-6.875,16.68-6.875
	c6.611,0,12.159,2.291,16.639,6.875C346.299,162.63,348.552,168.283,348.552,175.024z"/>
<path fill="#FFFFFF" d="M147.874,257.447c45.967-3.366,71.552-33.995,104.878-34.366c24.439-0.272,42.008,18.624,78.356,6.855
	l0.378-0.569c-41.691,3.555-50.285-13.251-78.734-13.251c-39.419,0-63.006,29.52-104.354,31.526
	c-57.952,2.812-85.854-38.72-85.854-38.72v13.761C62.544,222.683,89.19,261.744,147.874,257.447z"/>
<rect x="103.992" y="143.408" fill="#FFFFFF" width="9.545" height="8.792"/>
<rect x="103.992" y="158.339" fill="#FFFFFF" width="9.545" height="48.337"/>
</svg>
